<?xml version="1.0" encoding="UTF-8" standalone="no"?>
<!-- Created with Inkscape (http://www.inkscape.org/) -->

<svg
   xmlns:dc="http://purl.org/dc/elements/1.1/"
   xmlns:cc="http://creativecommons.org/ns#"
   xmlns:rdf="http://www.w3.org/1999/02/22-rdf-syntax-ns#"
   xmlns:svg="http://www.w3.org/2000/svg"
   xmlns="http://www.w3.org/2000/svg"
   xmlns:sodipodi="http://sodipodi.sourceforge.net/DTD/sodipodi-0.dtd"
   xmlns:inkscape="http://www.inkscape.org/namespaces/inkscape"
   width="210mm"
   height="297mm"
   viewBox="0 0 210 297"
   version="1.1"
   id="svg8"
   inkscape:version="0.92.0 r15299"
   sodipodi:docname="drawing.svg">
  <defs
     id="defs2">
    <inkscape:path-effect
       effect="skeletal"
       id="path-effect4801"
       is_visible="true"
       pattern="M 0,5 C 0,2.24 2.24,0 5,0 7.76,0 10,2.24 10,5 10,7.76 7.76,10 5,10 2.24,10 0,7.76 0,5 Z"
       copytype="single_stretched"
       prop_scale="0.11118929"
       scale_y_rel="false"
       spacing="0"
       normal_offset="0"
       tang_offset="0"
       prop_units="false"
       vertical_pattern="false"
       fuse_tolerance="0" />
    <inkscape:path-effect
       effect="skeletal"
       id="path-effect4797"
       is_visible="true"
       pattern="M 0,5 C 0,2.24 2.24,0 5,0 7.76,0 10,2.24 10,5 10,7.76 7.76,10 5,10 2.24,10 0,7.76 0,5 Z"
       copytype="single_stretched"
       prop_scale="0.12322728"
       scale_y_rel="false"
       spacing="0"
       normal_offset="0"
       tang_offset="0"
       prop_units="false"
       vertical_pattern="false"
       fuse_tolerance="0" />
    <inkscape:path-effect
       effect="skeletal"
       id="path-effect4785"
       is_visible="true"
       pattern="M 0,5 C 0,2.24 2.24,0 5,0 7.76,0 10,2.24 10,5 10,7.76 7.76,10 5,10 2.24,10 0,7.76 0,5 Z"
       copytype="single_stretched"
       prop_scale="0.12980327"
       scale_y_rel="false"
       spacing="0"
       normal_offset="0"
       tang_offset="0"
       prop_units="false"
       vertical_pattern="false"
       fuse_tolerance="0" />
    <inkscape:path-effect
       effect="skeletal"
       id="path-effect4781"
       is_visible="true"
       pattern="m 118.369,181.06452 c 0,-2.76 2.24,-5 5,-5 2.76,0 5,2.24 5,5 0,2.76 -2.24,5 -5,5 -2.76,0 -5,-2.24 -5,-5 z"
       copytype="single_stretched"
       prop_scale="0.10211583"
       scale_y_rel="false"
       spacing="0"
       normal_offset="0"
       tang_offset="0"
       prop_units="false"
       vertical_pattern="false"
       fuse_tolerance="0" />
    <inkscape:path-effect
       fuse_tolerance="0"
       vertical_pattern="false"
       prop_units="false"
       tang_offset="0"
       normal_offset="0"
       spacing="0"
       scale_y_rel="false"
       prop_scale="0.10211583"
       copytype="single_stretched"
       pattern="m 105.2107,180.82829 c 0,-2.76 2.24,-5 5,-5 2.76,0 5,2.24 5,5 0,2.76 -2.24,5 -5,5 -2.76,0 -5,-2.24 -5,-5 z"
       is_visible="true"
       id="path-effect4777"
       effect="skeletal" />
    <inkscape:path-effect
       effect="skeletal"
       id="path-effect4753"
       is_visible="true"
       pattern="M 0,5 C 0,2.24 2.24,0 5,0 7.76,0 10,2.24 10,5 10,7.76 7.76,10 5,10 2.24,10 0,7.76 0,5 Z"
       copytype="single_stretched"
       prop_scale="0.10211583"
       scale_y_rel="false"
       spacing="0"
       normal_offset="0"
       tang_offset="0"
       prop_units="false"
       vertical_pattern="false"
       fuse_tolerance="0" />
    <inkscape:path-effect
       effect="skeletal"
       id="path-effect4749"
       is_visible="true"
       pattern="M 0,5 C 0,2.24 2.24,0 5,0 7.76,0 10,2.24 10,5 10,7.76 7.76,10 5,10 2.24,10 0,7.76 0,5 Z"
       copytype="single_stretched"
       prop_scale="0.10827724"
       scale_y_rel="false"
       spacing="0"
       normal_offset="0"
       tang_offset="0"
       prop_units="false"
       vertical_pattern="false"
       fuse_tolerance="0" />
    <inkscape:path-effect
       effect="skeletal"
       id="path-effect4745"
       is_visible="true"
       pattern="M 0,5 C 0,2.24 2.24,0 5,0 7.76,0 10,2.24 10,5 10,7.76 7.76,10 5,10 2.24,10 0,7.76 0,5 Z"
       copytype="single_stretched"
       prop_scale="0.086471299"
       scale_y_rel="false"
       spacing="0"
       normal_offset="0"
       tang_offset="0"
       prop_units="false"
       vertical_pattern="false"
       fuse_tolerance="0" />
    <inkscape:path-effect
       fuse_tolerance="0"
       vertical_pattern="false"
       prop_units="false"
       tang_offset="0"
       normal_offset="0"
       spacing="0"
       scale_y_rel="false"
       prop_scale="0.075945237"
       copytype="single_stretched"
       pattern="m 0.07087054,30.064546 c 0,-2.76 2.23999996,-5 4.99999996,-5 2.76,0 4.9999995,2.24 4.9999995,5 0,2.76 -2.2399995,5 -4.9999995,5 -2.76,0 -4.99999996,-2.24 -4.99999996,-5 z"
       is_visible="true"
       id="path-effect4741"
       effect="skeletal" />
    <inkscape:path-effect
       effect="skeletal"
       id="path-effect4737"
       is_visible="true"
       pattern="M 0,5 C 0,2.24 2.24,0 5,0 7.76,0 10,2.24 10,5 10,7.76 7.76,10 5,10 2.24,10 0,7.76 0,5 Z"
       copytype="single_stretched"
       prop_scale="0.080139395"
       scale_y_rel="false"
       spacing="0"
       normal_offset="0"
       tang_offset="0"
       prop_units="false"
       vertical_pattern="false"
       fuse_tolerance="0" />
    <inkscape:path-effect
       effect="skeletal"
       id="path-effect4733"
       is_visible="true"
       pattern="M 0,5 C 0,2.24 2.24,0 5,0 7.76,0 10,2.24 10,5 10,7.76 7.76,10 5,10 2.24,10 0,7.76 0,5 Z"
       copytype="single_stretched"
       prop_scale="0.075945237"
       scale_y_rel="false"
       spacing="0"
       normal_offset="0"
       tang_offset="0"
       prop_units="false"
       vertical_pattern="false"
       fuse_tolerance="0" />
    <inkscape:path-effect
       effect="powerstroke"
       id="path-effect4726"
       is_visible="true"
       offset_points="0,0.13229166"
       sort_points="true"
       interpolator_type="CubicBezierJohan"
       interpolator_beta="0.2"
       start_linecap_type="zerowidth"
       linejoin_type="extrp_arc"
       miter_limit="4"
       end_linecap_type="zerowidth" />
    <inkscape:path-effect
       effect="powerstroke"
       id="path-effect4516"
       is_visible="true"
       offset_points="0,0.13229166"
       sort_points="true"
       interpolator_type="CubicBezierJohan"
       interpolator_beta="0.2"
       start_linecap_type="zerowidth"
       linejoin_type="extrp_arc"
       miter_limit="4"
       end_linecap_type="zerowidth" />
    <inkscape:path-effect
       effect="powerstroke"
       id="path-effect4512"
       is_visible="true"
       offset_points="0,0.13229166"
       sort_points="true"
       interpolator_type="CubicBezierJohan"
       interpolator_beta="0.2"
       start_linecap_type="zerowidth"
       linejoin_type="extrp_arc"
       miter_limit="4"
       end_linecap_type="zerowidth" />
    <inkscape:path-effect
       effect="skeletal"
       id="path-effect4765"
       is_visible="true"
       pattern="m 118.10914,168.11884 c 0,-2.76 2.24,-5 5,-5 2.76,0 5,2.24 5,5 0,2.76 -2.24,5 -5,5 -2.76,0 -5,-2.24 -5,-5 z"
       copytype="single_stretched"
       prop_scale="0.10211583"
       scale_y_rel="false"
       spacing="0"
       normal_offset="0"
       tang_offset="0"
       prop_units="false"
       vertical_pattern="false"
       fuse_tolerance="0" />
  </defs>
  <sodipodi:namedview
     id="base"
     pagecolor="#ffffff"
     bordercolor="#666666"
     borderopacity="1.0"
     inkscape:pageopacity="0.0"
     inkscape:pageshadow="2"
     inkscape:zoom="0.7"
     inkscape:cx="241.03595"
     inkscape:cy="807.85776"
     inkscape:document-units="mm"
     inkscape:current-layer="layer1"
     showgrid="false"
     inkscape:object-nodes="false"
     inkscape:window-width="1920"
     inkscape:window-height="1017"
     inkscape:window-x="1912"
     inkscape:window-y="-8"
     inkscape:window-maximized="1" />
  <metadata
     id="metadata5">
    <rdf:RDF>
      <cc:Work
         rdf:about="">
        <dc:format>image/svg+xml</dc:format>
        <dc:type
           rdf:resource="http://purl.org/dc/dcmitype/StillImage" />
        <dc:title></dc:title>
      </cc:Work>
    </rdf:RDF>
  </metadata>
  <g
     inkscape:label="Layer 1"
     inkscape:groupmode="layer"
     id="layer1">
    <g
       id="g4814"
       inkscape:export-xdpi="300"
       inkscape:export-ydpi="300"
       transform="matrix(1.720586,0,0,1.7062907,-74.134254,-163.10443)">
      <path
         sodipodi:nodetypes="cc"
         inkscape:original-d="m 100.91965,159.27492 25.48976,0.30711"
         inkscape:path-effect="#path-effect4733"
         inkscape:connector-curvature="0"
         id="path4731"
         d="m 100.91965,159.27492 c 0.003,-0.20959 5.71428,-0.31091 12.74945,-0.22614 7.03518,0.0848 12.74284,0.32366 12.74031,0.53325 -0.003,0.20959 -5.71428,0.31091 -12.74945,0.22614 -7.03518,-0.0848 -12.74284,-0.32366 -12.74031,-0.53325 z"
         style="fill:#000000;stroke:none;stroke-width:0.26458332px;stroke-linecap:butt;stroke-linejoin:miter;stroke-opacity:1" />
      <path
         inkscape:original-d="m 126.45666,160.0545 c 0.23623,6.37835 -0.0709,24.23772 -0.0709,24.23772"
         inkscape:path-effect="#path-effect4737"
         inkscape:connector-curvature="0"
         id="path4735"
         d="m 126.45666,160.0545 c 0.28936,-0.0107 0.5438,5.42473 0.47713,12.12337 -0.008,0.81026 -0.019,1.61201 -0.0309,2.37689 -0.10706,5.53835 -0.32169,9.71757 -0.51554,9.73744 0,0 0,0 0,0 0,0 0,0 0,0 0,0 0,0 0,0 0,0 0,0 0,0 0,0 0,0 0,0 0,0 0,0 0,0 0,0 0,0 0,0 -0.002,4e-5 -0.002,2e-5 -0.002,2e-5 0,0 0,2e-5 -0.002,-7e-5 0,0 0,0 0,0 0,0 0,0 0,0 0,0 0,0 0,0 0,0 0,0 0,0 0,0 0,0 0,0 0,0 0,0 0,0 0,0 0,0 0,0 -0.19327,-0.0257 -0.30131,-4.20917 -0.2672,-9.74592 0.002,-0.77168 0.007,-1.56151 0.0154,-2.37759 0.0663,-6.68183 0.17207,-12.1085 0.32433,-12.11414 z"
         style="fill:#000000;stroke:none;stroke-width:0.26458332px;stroke-linecap:butt;stroke-linejoin:miter;stroke-opacity:1" />
      <path
         style="fill:#000000;stroke:none;stroke-width:0.26458332px;stroke-linecap:butt;stroke-linejoin:miter;stroke-opacity:1"
         d="m 100.99052,184.33946 c 0.003,-0.20959 5.71428,-0.31091 12.74946,-0.22614 7.03517,0.0848 12.74283,0.32366 12.7403,0.53325 -0.003,0.20959 -5.71428,0.31091 -12.74945,0.22614 -7.03518,-0.0848 -12.74284,-0.32366 -12.74031,-0.53325 z"
         id="path4739"
         inkscape:connector-curvature="0"
         inkscape:path-effect="#path-effect4741"
         inkscape:original-d="m 100.99052,184.33946 25.48976,0.30711"
         sodipodi:nodetypes="cc" />
      <path
         inkscape:original-d="m 101.10863,162.41685 0.11812,20.95406"
         inkscape:path-effect="#path-effect4745"
         inkscape:connector-curvature="0"
         id="path4743"
         d="m 101.10863,162.41685 c 0.23866,-0.001 0.45881,4.69127 0.49141,10.47459 0.0326,5.78332 -0.13463,10.47812 -0.37329,10.47947 -0.23866,0.001 -0.45881,-4.69127 -0.49141,-10.47459 -0.0326,-5.78332 0.13463,-10.47812 0.37329,-10.47947 z"
         style="fill:#000000;stroke:none;stroke-width:0.26458332px;stroke-linecap:butt;stroke-linejoin:miter;stroke-opacity:1" />
      <path
         sodipodi:nodetypes="ccccccc"
         inkscape:original-d="m 108.47802,167.70836 -2.90656,-0.4176 -0.13363,-2.35532 1.5368,-1.36975 1.98782,0.33408 0.7684,1.55351 -0.30068,1.50339"
         inkscape:path-effect="#path-effect4753"
         inkscape:connector-curvature="0"
         id="path4751"
         d="m 108.47802,167.70836 c -0.0281,0.1958 -1.22271,0.13604 -3.15253,-0.19193 -0.0924,-0.78068 -0.2026,-1.7514 -0.30686,-2.75481 0.29227,-0.26547 0.59529,-0.53826 0.90544,-0.81492 0.31435,-0.28041 0.6239,-0.55399 0.92472,-0.81742 0.8534,0.15502 1.65151,0.30842 2.35109,0.45091 0,0 0,0 0,0 0.34705,0.71484 0.63097,1.33075 0.84378,1.83189 0,0 0,0 0,0 -0.264,1.01975 -0.48638,1.57001 -0.61349,1.54459 -0.12641,-0.0253 -0.12352,-0.60863 -0.0121,-1.46219 0,0 0,0 0,0 -0.22205,-0.37806 -0.4542,-0.80545 -0.69302,-1.27513 0,0 0,0 0,0 -0.51471,-0.0616 -1.05883,-0.13373 -1.62455,-0.21725 -0.20253,0.1852 -0.40971,0.37219 -0.62216,0.56131 -0.2096,0.18659 -0.41657,0.36837 -0.62128,0.54585 -0.008,0.65926 -0.0259,1.37743 -0.0396,1.95583 1.5634,0.17511 2.68889,0.4463 2.66059,0.64327 z"
         style="fill:#000000;stroke:none;stroke-width:0.26458332px;stroke-linecap:butt;stroke-linejoin:miter;stroke-opacity:1" />
      <path
         sodipodi:nodetypes="ccccccc"
         inkscape:original-d="m 120.31791,167.87124 -2.30311,-1.82158 1.06801,-2.10351 2.01698,-0.41202 1.55075,1.28771 -0.11629,1.72925 -1.01541,1.14871"
         inkscape:path-effect="#path-effect4765"
         inkscape:connector-curvature="0"
         id="path4751-1"
         d="m 120.31791,167.87124 c -0.12271,0.15515 -1.12549,-0.49679 -2.62916,-1.75007 0.31242,-0.72137 0.7049,-1.61603 1.11897,-2.53595 0.38609,-0.0827 0.78515,-0.16623 1.19232,-0.24958 0.41269,-0.0845 0.81779,-0.16546 1.21024,-0.24205 0.65994,0.56285 1.27288,1.09653 1.80613,1.57126 0,0 0,0 0,0 -0.0591,0.79242 -0.12318,1.4676 -0.19101,2.0078 0,0 0,0 0,0 -0.74067,0.749 -1.20944,1.113 -1.30656,1.02715 -0.0966,-0.0854 0.19905,-0.58828 0.72426,-1.27027 0,0 0,0 0,0 -0.002,-0.43845 0.012,-0.92462 0.0416,-1.4507 0,0 0,0 0,0 -0.41403,-0.31191 -0.84823,-0.64767 -1.29537,-1.00416 -0.26818,0.0584 -0.54126,0.11591 -0.81997,0.17267 -0.27498,0.056 -0.54526,0.10916 -0.81143,0.15974 -0.33846,0.5658 -0.7146,1.17786 -1.01705,1.67107 1.2637,0.937 2.10051,1.73701 1.97706,1.89309 z"
         style="fill:#000000;stroke:none;stroke-width:0.26458332px;stroke-linecap:butt;stroke-linejoin:miter;stroke-opacity:1" />
      <path
         style="fill:#000000;stroke:none;stroke-width:0.26458332px;stroke-linecap:butt;stroke-linejoin:miter;stroke-opacity:1"
         d="m 109.83125,178.26058 c 0.15397,0.12419 -0.50755,1.12068 -1.77518,2.61228 -0.71834,-0.31931 -1.6092,-0.72034 -2.5251,-1.14321 -0.079,-0.38686 -0.15871,-0.78671 -0.23816,-1.19466 -0.0805,-0.41347 -0.15762,-0.81934 -0.23046,-1.21251 0.56915,-0.65451 1.10868,-1.26232 1.5885,-1.79098 0,0 0,0 0,0 0.79182,0.0667 1.46635,0.13722 2.00587,0.21023 0,0 0,0 0,0 0.74188,0.7478 1.10138,1.22003 1.0146,1.31633 -0.0863,0.0958 -0.58635,-0.20467 -1.26328,-0.73639 0,0 0,0 0,0 -0.43845,-0.002 -0.92446,-0.0209 -1.45023,-0.0555 0,0 0,0 0,0 -0.31587,0.41103 -0.65577,0.84199 -1.01652,1.2857 0.0558,0.26872 0.11071,0.54234 0.1648,0.82158 0.0534,0.27551 0.10393,0.54629 0.15196,0.81293 0.56254,0.34386 1.17097,0.72585 1.66126,1.03301 0.94906,-1.25467 1.75705,-2.08378 1.91194,-1.95884 z"
         id="path4775"
         inkscape:connector-curvature="0"
         inkscape:path-effect="#path-effect4777"
         inkscape:original-d="m 109.83125,178.26058 -1.84356,2.28556 -2.09318,-1.08811 -0.39269,-2.02084 1.30251,-1.53834 1.72805,0.13285 1.13894,1.02636"
         sodipodi:nodetypes="ccccccc" />
      <path
         sodipodi:nodetypes="ccccccc"
         inkscape:original-d="m 120.87994,176.07894 2.11721,2.03468 -1.26539,1.99102 -2.04727,0.2161 -1.41969,-1.43092 0.2821,-1.71003 1.12119,-1.04572"
         inkscape:path-effect="#path-effect4781"
         inkscape:connector-curvature="0"
         id="path4779"
         d="m 120.87994,176.07894 c 0.13707,-0.14263 1.07248,0.60275 2.44863,1.99486 -0.38036,0.68798 -0.85707,1.54073 -1.35772,2.41655 -0.39224,0.0451 -0.7975,0.0899 -1.2108,0.13374 -0.4189,0.0444 -0.82991,0.086 -1.22792,0.12452 -0.60273,-0.62373 -1.1615,-1.21389 -1.6466,-1.73772 0,0 0,0 0,0 0.1351,-0.78305 0.26378,-1.44893 0.38326,-1.9801 0,0 0,0 0,0 0.80928,-0.67429 1.31089,-0.99151 1.3993,-0.89672 0.0879,0.0943 -0.25471,0.56641 -0.84308,1.19472 0,0 0,0 0,0 -0.0402,0.43661 -0.10093,0.91916 -0.18094,1.43996 0,0 0,0 0,0 0.38212,0.3503 0.782,0.72627 1.19278,1.12412 0.27254,-0.0323 0.5499,-0.0633 0.83278,-0.093 0.27909,-0.0293 0.55324,-0.0562 0.82304,-0.0809 0.39131,-0.53063 0.82457,-1.10366 1.17306,-1.56549 -1.16771,-1.05422 -1.92368,-1.93102 -1.78579,-2.0745 z"
         style="fill:#000000;stroke:none;stroke-width:0.26458332px;stroke-linecap:butt;stroke-linejoin:miter;stroke-opacity:1" />
      <path
         inkscape:original-d="m 114.43229,155.35342 7.84301,-1.6064 3.49628,-1.41741 1.5119,-2.07887 -0.75595,-2.45684 -2.74033,-2.64584 -3.02381,-2.26785 -6.80357,-3.40179 -6.99256,-2.74033"
         inkscape:path-effect="#path-effect4785"
         inkscape:connector-curvature="0"
         id="path4783"
         d="m 114.43229,155.35342 c -0.0429,-0.20931 3.00015,-1.02502 7.69283,-2.10314 1.02482,-0.4342 2.12501,-0.89158 3.29505,-1.37012 0.42529,-0.56324 0.86202,-1.13551 1.31279,-1.72117 0.12437,0.34419 -0.85968,-2.38389 -0.73531,-2.03969 -0.65449,-0.6131 -1.32259,-1.24157 -1.99936,-1.88142 0.001,0.001 -0.63196,-0.59842 -0.63075,-0.59728 -1.0081,-0.75965 -1.9889,-1.50387 -2.93436,-2.22609 -2.48268,-1.26469 -4.74905,-2.44346 -6.6799,-3.47182 0,0 0,0 0,0 -4.19663,-1.77137 -6.86121,-3.01274 -6.78602,-3.2046 0.0752,-0.19195 2.87689,0.70906 7.19909,2.27606 0,0 1e-5,0 1e-5,0 2.01225,0.94319 4.36531,2.07415 6.92724,3.33176 1.00601,0.74138 2.04762,1.51396 3.11326,2.30961 0.001,0.001 0.68611,0.67416 0.68717,0.6752 0.73637,0.72457 1.45972,1.43955 2.16338,2.13778 0.26616,0.9807 0.52691,1.94652 0.77659,2.87399 -0.58994,0.84532 -1.16042,1.65797 -1.71101,2.43657 -1.32204,0.53176 -2.55819,1.02155 -3.69751,1.4647 -4.82427,0.87093 -7.95028,1.31916 -7.99319,1.10966 z"
         style="fill:#000000;stroke:none;stroke-width:0.26458332px;stroke-linecap:butt;stroke-linejoin:miter;stroke-opacity:1" />
      <path
         inkscape:original-d="m 106.4003,135.76953 -0.28349,-1.86626 -0.51971,-2.50409 -0.59059,-1.79539 -0.61421,-1.48828 -0.87407,-1.27567 -0.87407,-1.01581 -1.48828,-0.92132 -1.393791,-0.63783 -1.535528,-0.35435 -1.41741,-0.14174 -1.937128,0.0472 -1.488281,0.28348 -1.582775,0.61422 -1.464659,0.94494 -0.850445,0.96856 -0.779576,1.22842 -0.496094,1.22843 -0.4016,1.22842 -0.401601,1.41741 -0.330729,1.9135 -0.188987,1.37017 -0.188989,1.32291"
         inkscape:path-effect="#path-effect4797"
         inkscape:connector-curvature="0"
         id="path4795"
         d="m 106.4003,135.76953 c -0.0983,0.0149 -0.29336,-0.64315 -0.55567,-1.81738 -0.1855,-0.66098 -0.40142,-1.48648 -0.64076,-2.44785 0,0 0,0 0,0 -0.20097,-0.5371 -0.41478,-1.11786 -0.63942,-1.73684 -0.20027,-0.44985 -0.40765,-0.92004 -0.62134,-1.40885 -0.27794,-0.38322 -0.56384,-0.77929 -0.85657,-1.18675 -0.26442,-0.30059 -0.53341,-0.60781 -0.80682,-0.92149 -0.45743,-0.26937 -0.9253,-0.54603 -1.40166,-0.82897 -0.4298,-0.19221 -0.8664,-0.38842 -1.309281,-0.58842 -0.473983,-0.10432 -0.954743,-0.21096 -1.441477,-0.31978 -0.442346,-0.0423 -0.889597,-0.0857 -1.341286,-0.13028 6.89e-4,-2e-5 -0.608461,0.0146 -0.607772,0.0146 -0.417369,0.01 -0.831249,0.0189 -1.241246,0.0274 -0.46741,0.0874 -0.92968,0.17306 -1.386279,0.25693 -0.50085,0.19053 -0.994604,0.3773 -1.48038,0.56002 -0.461701,0.28936 -0.915787,0.57269 -1.36101,0.84928 -0.263197,0.29512 -0.522714,0.58499 -0.778402,0.86944 -0.256554,0.38839 -0.508173,0.76759 -0.754196,1.13669 -0.168951,0.39714 -0.334409,0.78353 -0.496022,1.1584 -0.146214,0.41194 -0.288596,0.80987 -0.4267,1.19257 -0.153293,0.48247 -0.30088,0.94125 -0.441907,1.37369 -0.14707,0.69335 -0.285103,1.32052 -0.412042,1.87167 -0.101615,0.52194 -0.195497,0.97547 -0.280245,1.35252 0,0 0,0 0,0 -0.19352,0.84282 -0.339229,1.30202 -0.421528,1.29026 -0.0823,-0.0118 -0.09361,-0.49336 -0.04355,-1.35556 0,0 0,0 0,0 0.02077,-0.38797 0.05361,-0.85318 0.09773,-1.38782 0.06752,-0.57398 0.15108,-1.22881 0.249416,-1.95533 0.111437,-0.45861 0.232083,-0.94652 0.361295,-1.46113 0.119476,-0.4052 0.245101,-0.82705 0.3765,-1.26426 0.158821,-0.41861 0.32434,-0.85177 0.496166,-1.29847 0.259199,-0.42701 0.527794,-0.86753 0.804956,-1.32015 0.299771,-0.34815 0.607447,-0.70425 0.922488,-1.06768 0.50884,-0.33893 1.032354,-0.68632 1.568308,-1.0406 0.550478,-0.21941 1.112823,-0.44248 1.68517,-0.66842 0.522624,-0.10265 1.053163,-0.20609 1.590283,-0.31003 0.448811,-0.0124 0.902208,-0.0244 1.359444,-0.0359 7.61e-4,-2e-5 0.665033,-0.0164 0.665794,-0.0164 0.503346,0.051 1.001525,0.10208 1.493532,0.1532 0.551566,0.13079 1.095291,0.26057 1.629582,0.38892 0.50213,0.23247 0.99529,0.46173 1.4783,0.68724 0.53927,0.34579 1.06513,0.68428 1.5749,1.01367 0.32256,0.37893 0.63651,0.74918 0.94132,1.11013 0.30858,0.47014 0.60618,0.92564 0.89157,1.36459 0.21345,0.54621 0.41607,1.06945 0.60708,1.56771 0.19698,0.66274 0.37809,1.28252 0.54176,1.85394 0,0 0,0 0,0 0.16939,1.00805 0.30378,1.87028 0.39866,2.56033 0.10035,1.21346 0.10966,1.9002 0.0113,1.91514 z"
         style="fill:#000000;stroke:none;stroke-width:0.26458332px;stroke-linecap:butt;stroke-linejoin:miter;stroke-opacity:1" />
      <path
         inkscape:original-d="m 85.989582,136.50186 -2.976562,0.85045 -2.220611,0.80319 -2.409597,0.99219 -2.456845,1.03944 -2.929315,1.5119 -2.55134,1.74814 -1.889882,2.07887 -1.228421,2.07887 -0.283482,2.07887 0.425222,1.6064 1.228424,1.70089 1.653645,1.08668 1.700893,0.61421 1.842632,0.42522 2.173364,0.18899 2.031622,0.28349 1.984375,0.23623 -0.236236,1.55915 -1.181174,2.03162 -1.842635,3.44904 -1.133927,1.79538 -1.228424,2.12612 -1.039434,1.74814 -1.464657,2.74033 -1.181176,2.59858 -1.039434,2.45685 -0.566965,2.3151 -0.14174,2.31511 0.04725,1.41741 0.614212,0.85044 1.181174,0.56697 1.417413,0.28348 1.55915,0.0472 h 2.4096 l 2.834819,-0.37798 h 3.543528 l 2.504091,-0.0473 2.362353,-0.18898 1.41741,-0.56697 0.897694,-0.7087 0.897692,-0.99219 0.992187,-1.22842 1.370166,-1.88988 0.803199,-1.6064 0.850447,-1.74814 0.614209,-1.88988 0.614212,-0.66146 h 0.897694 l 0.992187,0.0945 0.425223,0.61421 0.472472,0.99219"
         inkscape:path-effect="#path-effect4801"
         inkscape:connector-curvature="0"
         id="path4799"
         d="m 85.989582,136.50186 c 0.01802,0.0631 -1.014177,0.42346 -2.919073,1.02828 -0.633639,0.25039 -1.365903,0.53592 -2.18974,0.85396 -0.724173,0.31635 -1.520662,0.66196 -2.384729,1.03485 -10e-7,0 -2e-6,0 -2e-6,0 -0.758301,0.33578 -1.568768,0.69315 -2.428241,1.07074 -0.904947,0.48286 -1.865877,0.99396 -2.87883,1.5312 -9e-6,1e-5 -2.47736,1.73182 -2.47737,1.73183 9.81e-4,-0.001 -1.810293,2.03039 -1.809312,2.02929 -9.36e-4,0.002 -1.155432,1.96695 -1.156368,1.96855 2.38e-4,-0.002 -0.24523,1.90686 -0.244991,1.905 -7.07e-4,-0.003 0.393384,1.43608 0.392678,1.4335 -0.0013,-0.002 1.138371,1.55535 1.137024,1.55351 -0.01081,-0.007 1.553614,0.99723 1.542807,0.99029 -0.0054,-0.002 1.627558,0.57309 1.622111,0.57117 -0.0014,-3.2e-4 1.780844,0.4033 1.779437,0.40298 -0.0044,-3.6e-4 2.156295,0.17691 2.151868,0.17655 -0.0025,-3.5e-4 2.043353,0.27791 2.040806,0.27756 0.731638,0.17662 1.469476,0.35583 2.214207,0.53765 -5.09e-4,0.0303 -0.03106,1.93297 -0.03157,1.96329 0.01521,-0.0268 -1.221068,2.14796 -1.20586,2.1212 0.0043,-0.008 -1.847303,3.46857 -1.842987,3.46046 0.0019,-0.003 -1.138794,1.80738 -1.136872,1.80433 0,0 -2e-6,0 -2e-6,0 0.0022,-0.004 -1.225937,2.12413 -1.223699,2.12025 2.16e-4,-3.7e-4 -0.407386,0.68506 -0.40717,0.6847 -6.04e-4,0.001 -0.627268,1.05435 -0.627872,1.05536 -0.0034,0.006 -1.448658,2.70626 -1.452029,2.71256 -0.002,0.005 -1.171251,2.57015 -1.173297,2.57465 0,0 -2e-6,0 -2e-6,0 -0.0034,0.008 -1.023466,2.39896 -1.026885,2.40698 -0.0011,0.004 -0.549963,2.22017 -0.551048,2.22455 -3.3e-5,5.4e-4 -0.140353,2.24111 -0.140386,2.24164 0,0 0,1e-5 0,1e-5 1.59e-4,-0.0279 -0.007,1.27368 -0.0069,1.24583 -0.0014,-0.002 0.463027,0.62461 0.461675,0.62279 -0.004,-0.002 1.02177,0.46925 1.017742,0.4674 -7.76e-4,-1.6e-4 1.312459,0.26376 1.311684,0.26361 -3.76e-4,-2e-5 1.508789,0.049 1.508413,0.049 0.0046,3e-5 2.364436,0.0138 2.368995,0.0138 0.0033,-4.2e-4 2.832581,-0.3616 2.835879,-0.36202 0.0024,1e-5 3.568622,0.0212 3.571035,0.0213 0.0018,-3e-5 2.485002,-0.0275 2.486753,-0.0275 0.0056,-3.8e-4 2.283865,-0.15335 2.289501,-0.15373 2.01e-4,-7e-5 1.311245,-0.51012 1.311445,-0.5102 0,0 3e-6,0 3e-6,0 -3.2e-5,3e-5 0.830721,-0.64819 0.830689,-0.64817 0,0 2e-6,0 2e-6,0 -10e-7,0 0.877573,-0.95203 0.877572,-0.95203 -1.94e-4,2.4e-4 0.994178,-1.20153 0.993983,-1.20129 -0.0015,0.002 1.376863,-1.84341 1.375359,-1.8414 0.281192,-0.54449 0.552233,-1.06804 0.812693,-1.56981 0.306417,-0.60358 0.597762,-1.17575 0.87312,-1.71466 0.241551,-0.68684 0.465883,-1.32241 0.671458,-1.902 0.01967,-0.0194 0.710697,-0.70181 0.730364,-0.7212 0.351526,-0.004 0.678448,-0.007 0.981249,-0.007 0.391643,0.0602 0.740028,0.11299 1.050366,0.15975 0.176314,0.25386 0.327825,0.4775 0.455788,0.67167 0,0 0,0 0,0 0.28135,0.67388 0.410106,1.03191 0.37522,1.04852 -0.03488,0.0166 -0.231605,-0.30884 -0.569723,-0.93586 0,0 -1e-6,0 -1e-6,0 -0.120377,-0.16454 -0.252481,-0.35057 -0.394658,-0.55675 -0.284698,-0.01 -0.595873,-0.0199 -0.934007,-0.0292 -0.257284,-2.8e-4 -0.528867,-0.003 -0.81414,-0.007 -0.160953,0.19342 -0.327028,0.39399 -0.49806,0.60172 -0.17018,0.57657 -0.356475,1.20449 -0.55696,1.87776 -0.258848,0.55918 -0.535033,1.1536 -0.827774,1.78162 -0.252604,0.52436 -0.517292,1.07227 -0.793705,1.64299 -0.0011,0.002 -1.363892,1.93682 -1.364973,1.93836 -1.48e-4,1.9e-4 -0.990244,1.25536 -0.990391,1.25555 1.1e-5,-1e-5 -0.917823,1.03236 -0.917812,1.03235 0,0 -3e-6,0 -3e-6,0 -4.4e-5,3e-5 -0.964645,0.76919 -0.964689,0.76923 0,0 -2e-6,0 -2e-6,0 4.2e-5,-2e-5 -1.523417,0.62375 -1.523374,0.62373 0.0044,-4e-4 -2.439614,0.22465 -2.435206,0.22424 0.0016,-4e-5 -2.523011,0.0671 -2.521429,0.0671 0.0025,-1e-5 -3.518518,0.0213 -3.51602,0.0212 0.0032,-4.5e-4 -2.83696,0.39438 -2.83376,0.39394 0.0042,-3e-5 -2.454422,0.0138 -2.450205,0.0138 -4.84e-4,-2e-5 -1.609403,-0.0454 -1.609887,-0.0454 -9.57e-4,-1.9e-4 -1.522185,-0.30316 -1.523142,-0.30335 -0.0045,-0.002 -1.340101,-0.66431 -1.344606,-0.66654 -0.0017,-0.002 -0.76509,-1.07576 -0.766749,-1.07809 -0.0029,-0.0455 -0.09848,-1.54343 -0.101385,-1.58898 0,0 0,0 0,0 -2.3e-5,3.9e-4 0.143117,-2.38897 0.143094,-2.38858 -0.001,0.004 0.583906,-2.40988 0.582882,-2.40565 -0.0034,0.008 1.055346,-2.51474 1.051979,-2.50671 0,0 2e-6,-1e-5 2e-6,-1e-5 -0.002,0.005 1.191094,-2.62701 1.189055,-2.62251 -0.0034,0.006 1.480685,-2.77448 1.477285,-2.7681 -6.08e-4,0.001 0.633642,-1.06628 0.633034,-1.06526 2.18e-4,-3.6e-4 0.410574,-0.69059 0.410792,-0.69096 0.0023,-0.004 1.230896,-2.12809 1.233149,-2.13199 0,0 2e-6,-1e-5 2e-6,-1e-5 0.0019,-0.003 1.129053,-1.78337 1.130978,-1.78642 0.0044,-0.008 1.837908,-3.42945 1.842282,-3.43762 0.01552,-0.0261 1.140968,-1.91596 1.156489,-1.94204 0.148243,-0.38632 0.295187,-0.77114 0.440898,-1.15501 -0.588804,0.0231 -1.173369,0.0448 -1.754543,0.0652 -0.0026,-3.7e-4 -2.019843,-0.28905 -2.022438,-0.28942 -0.0043,-4e-4 -2.190512,-0.20103 -2.19486,-0.20143 -0.0012,-2.8e-4 -1.904634,-0.44718 -1.905827,-0.44746 -0.0047,-0.002 -1.774964,-0.65551 -1.779675,-0.65725 -0.008,-0.005 -1.756476,-1.17771 -1.764482,-1.18307 -8.11e-4,-0.001 -1.319014,-1.84714 -1.319825,-1.84827 -4.06e-4,-0.002 -0.45736,-1.77772 -0.457766,-1.7793 1.4e-4,-9.8e-4 0.321834,-2.25176 0.321973,-2.25274 -0.0012,0.002 1.301642,-2.19116 1.300474,-2.18919 7.84e-4,-8.5e-4 1.969668,-2.1276 1.970452,-2.12845 -3e-6,1e-5 2.625312,-1.76445 2.62531,-1.76445 1.04971,-0.52736 2.044243,-1.02553 2.9798,-1.4926 0.879774,-0.35825 1.709275,-0.69471 2.485449,-1.00814 0,0 2e-6,0 2e-6,0 0.881488,-0.34587 1.694511,-0.663 2.434461,-0.94953 0.847205,-0.28638 1.599829,-0.53793 2.251482,-0.75242 1.949005,-0.49629 3.016028,-0.7357 3.034051,-0.67262 z"
         style="fill:#000000;stroke:none;stroke-width:0.26458332px;stroke-linecap:butt;stroke-linejoin:miter;stroke-opacity:1" />
    </g>
  </g>
</svg>
